<?xml version="1.0" encoding="UTF-8" standalone="no"?>
<svg
   xmlns:dc="http://purl.org/dc/elements/1.1/"
   xmlns:cc="http://creativecommons.org/ns#"
   xmlns:rdf="http://www.w3.org/1999/02/22-rdf-syntax-ns#"
   xmlns:svg="http://www.w3.org/2000/svg"
   xmlns="http://www.w3.org/2000/svg"
   viewBox="0 0 145.84534 60.678001"
   height="60.678001"
   width="145.84534"
   xml:space="preserve"
   id="svg2"
   version="1.1"><metadata
     id="metadata8"><rdf:RDF><cc:Work
         rdf:about=""><dc:format>image/svg+xml</dc:format><dc:type
           rdf:resource="http://purl.org/dc/dcmitype/StillImage" /></cc:Work></rdf:RDF></metadata><defs
     id="defs6"><clipPath
       id="clipPath18"
       clipPathUnits="userSpaceOnUse"><path
         id="path16"
         d="M 0,45.508 H 109.384 V 0 H 0 Z" /></clipPath></defs><g
     transform="matrix(1.3333333,0,0,-1.3333333,0,60.678)"
     id="g10"><g
       id="g12"><g
         clip-path="url(#clipPath18)"
         id="g14"><g
           transform="translate(38.2515,26.6855)"
           id="g20"><path
             id="path22"
             style="fill:#ec0382;fill-opacity:1;fill-rule:nonzero;stroke:none"
             d="m 0,0 h -14.632 c -0.359,0 -0.65,0.292 -0.65,0.65 0,-0.358 0.291,-0.817 0.65,-1.025 L 0,-8.823 c 0.359,-0.206 0.649,-0.083 0.649,0.276 V 0.052 C 0.649,0.154 0.625,0.261 0.583,0.371 0.48,0.153 0.256,0 0,0" /></g><g
           transform="translate(38.2515,27.7621)"
           id="g24"><path
             id="path26"
             style="fill:#801c8f;fill-opacity:1;fill-rule:nonzero;stroke:none"
             d="m 0,0 -6.709,3.874 -7.923,-4.575 c -0.359,-0.207 -0.65,-0.084 -0.65,0.275 0,-0.359 0.291,-0.651 0.65,-0.651 H 0 c 0.256,0 0.48,0.153 0.583,0.371 C 0.48,-0.429 0.256,-0.149 0,0" /></g><g
           transform="translate(38.9008,45.1335)"
           id="g28"><path
             id="path30"
             style="fill:#fab220;fill-opacity:1;fill-rule:nonzero;stroke:none"
             d="m 0,0 c 0,0.358 -0.29,0.482 -0.648,0.274 l -14.633,-8.448 c -0.359,-0.206 -0.651,-0.665 -0.651,-1.023 0,0.358 0.292,0.648 0.651,0.648 h 14.632 c 0.256,0 0.479,-0.15 0.583,-0.369 C -0.024,-8.809 0,-8.699 0,-8.6 Z" /></g><g
           transform="translate(38.2515,36.5848)"
           id="g32"><path
             id="path34"
             style="fill:#f57615;fill-opacity:1;fill-rule:nonzero;stroke:none"
             d="m 0,0 h -14.632 c -0.359,0 -0.65,-0.29 -0.65,-0.649 0,0.359 0.291,0.481 0.65,0.274 l 7.923,-4.574 6.71,3.874 C 0.256,-0.927 0.48,-0.648 0.583,-0.369 0.48,-0.151 0.256,0 0,0" /></g><g
           transform="translate(23.6197,27.0611)"
           id="g36"><path
             id="path38"
             style="fill:#3d2174;fill-opacity:1;fill-rule:nonzero;stroke:none"
             d="M 0,0 7.923,4.575 0,9.149 C -0.359,9.356 -0.65,9.234 -0.65,8.875 v -8.6 C -0.65,-0.084 -0.359,-0.207 0,0" /></g><g
           transform="translate(0,17.7831)"
           id="g40"><path
             id="path42"
             style="fill:#3d2174;fill-opacity:1;fill-rule:nonzero;stroke:none"
             d="M 0,0 H 3.821 V -7.201 L 10.557,0 h 4.997 l -7.716,-8.058 8.377,-9.284 h -5.339 l -7.055,8.23 v -8.23 H 0 Z" /></g><g
           transform="translate(31.9644,1.666)"
           id="g44"><path
             id="path46"
             style="fill:#3d2174;fill-opacity:1;fill-rule:nonzero;stroke:none"
             d="m 0,0 c -2.253,-1.176 -4.727,-1.666 -7.275,-1.666 -5.412,0 -9.356,3.552 -9.356,9.112 0,5.56 3.944,9.112 9.356,9.112 2.743,0 5.169,-0.613 6.907,-2.229 l -2.694,-2.94 c -1.029,1.078 -2.278,1.641 -4.213,1.641 -3.257,0 -5.388,-2.351 -5.388,-5.584 0,-3.234 2.131,-5.585 5.388,-5.585 1.666,0 2.891,0.466 3.601,0.858 v 2.817 h -3.111 v 3.527 l 6.785,0 z" /></g><g
           transform="translate(73.711,13.5909)"
           id="g48"><path
             id="path50"
             style="fill:#3d2174;fill-opacity:1;fill-rule:nonzero;stroke:none"
             d="M 0,0 V -4.633 H 1.271 2.542 V 0 4.633 H 1.271 0 Z" /></g><g
           transform="translate(90.4038,9.2948)"
           id="g52"><path
             id="path54"
             style="fill:#3d2174;fill-opacity:1;fill-rule:nonzero;stroke:none"
             d="M 0,0 V -8.929 H 1.271 2.542 V 0 8.929 H 1.271 0 Z" /></g><g
           transform="translate(106.7576,9.2948)"
           id="g56"><path
             id="path58"
             style="fill:#3d2174;fill-opacity:1;fill-rule:nonzero;stroke:none"
             d="M 0,0 V -8.929 H 1.313 2.627 V 0 8.929 H 1.313 0 Z" /></g><g
           transform="translate(68.288,12.4116)"
           id="g60"><path
             id="path62"
             style="fill:#3d2174;fill-opacity:1;fill-rule:nonzero;stroke:none"
             d="M 0,0 V -0.758 H -1.737 -3.474 V 0 0.758 H -1.737 0 Z m -6.101,1.095 v -4.043 h 4.364 4.364 V 1.095 5.139 H 1.313 0 V 4.001 2.864 h -1.737 -1.737 v 1.137 1.138 h -1.314 -1.313 z" /></g><g
           transform="translate(56.4251,12.4958)"
           id="g64"><path
             id="path66"
             style="fill:#3d2174;fill-opacity:1;fill-rule:nonzero;stroke:none"
             d="M 0,0 V -2.19 H -3.601 -7.202 V 0 2.19 H -3.601 0 Z m -9.829,0 v -4.38 h 2.457 2.457 V -6.065 -7.75 h -3.431 -3.432 V -8.845 -9.94 h 8.177 8.177 v 1.095 1.095 H 1.102 -2.373 v 1.685 1.685 h 2.5 2.5 V 0 4.38 h -6.228 -6.228 z" /></g><g
           transform="translate(78.9646,15.6126)"
           id="g68"><path
             id="path70"
             style="fill:#3d2174;fill-opacity:1;fill-rule:nonzero;stroke:none"
             d="M 0,0 V -1.095 H 3.008 6.016 V -2.359 -3.622 H 3.05 0.085 v -3.808 -3.799 l 2.906,0.051 c 3.025,0.059 4.415,0.143 6.118,0.353 1.508,0.194 1.576,0.211 1.525,0.371 -0.017,0.076 -0.076,0.564 -0.127,1.095 -0.042,0.531 -0.093,0.969 -0.11,0.986 -0.009,0.017 -0.17,-0.009 -0.356,-0.051 C 8.914,-8.685 6.025,-8.929 4.093,-8.929 H 2.712 v 1.558 1.559 h 2.923 2.923 v 3.453 3.454 H 4.279 L 0,1.095 Z" /></g><g
           transform="translate(95.5726,10.5583)"
           id="g72"><path
             id="path74"
             style="fill:#3d2174;fill-opacity:1;fill-rule:nonzero;stroke:none"
             d="m 0,0 v -6.149 h 1.932 c 2.042,0 4.457,0.109 5.779,0.252 1.093,0.127 2.398,0.337 2.474,0.413 0.076,0.068 -0.246,1.954 -0.339,2.039 C 9.812,-3.412 9.372,-3.454 8.855,-3.538 7.77,-3.715 6.152,-3.841 4.093,-3.925 L 2.627,-3.976 v 1.525 1.524 H 5.423 8.219 V 0.126 1.179 H 5.423 2.627 v 1.39 1.39 H 5.593 8.558 V 5.054 6.149 H 4.279 L 0,6.149 Z" /></g><g
           transform="translate(64.3055,7.4837)"
           id="g76"><path
             id="path78"
             style="fill:#3d2174;fill-opacity:1;fill-rule:nonzero;stroke:none"
             d="M 0,0 V -1.053 H 4.703 9.406 V -1.474 -1.895 H 4.745 0.085 V -4.423 -6.95 h 6.228 6.228 v 1.095 1.096 H 7.584 2.627 v 0.421 0.421 h 4.66 4.661 v 2.485 2.485 H 5.974 L 0,1.053 Z" /></g></g></g></g></svg>